<?xml version="1.0" encoding="UTF-8"?>
<svg width="32" height="32" viewBox="0 0 32 32" fill="none" xmlns="http://www.w3.org/2000/svg">
  <path d="M26 18.5C26 21.5376 23.5376 24 20.5 24H9.5C6.46243 24 4 21.5376 4 18.5C4 15.4624 6.46243 13 9.5 13C9.67762 13 9.85365 13.0095 10.027 13.0281C10.0092 12.8535 10 12.6775 10 12.5C10 9.46243 12.4624 7 15.5 7C18.2731 7 20.5376 8.97771 20.9486 11.6033C21.4491 11.2098 22.0642 11 22.7222 11C24.5337 11 26 12.4663 26 14.2778C26 15.0478 25.7397 15.7566 25.2803 16.3225C25.7397 16.8884 26 17.5972 26 18.5Z" fill="#60A5FA" stroke="#2563EB" stroke-width="2"/>
  <path d="M10.027 13.0281C10.0092 12.8535 10 12.6775 10 12.5C10 9.46243 12.4624 7 15.5 7C18.2731 7 20.5376 8.97771 20.9486 11.6033C21.4491 11.2098 22.0642 11 22.7222 11C24.5337 11 26 12.4663 26 14.2778C26 15.0478 25.7397 15.7566 25.2803 16.3225" stroke="white" stroke-width="2" stroke-linecap="round"/>
</svg>
